<?xml version="1.0" encoding="utf-8"?>
<!-- Generator: Adobe Illustrator 16.0.0, SVG Export Plug-In . SVG Version: 6.00 Build 0)  -->
<!DOCTYPE svg PUBLIC "-//W3C//DTD SVG 1.1//EN" "http://www.w3.org/Graphics/SVG/1.1/DTD/svg11.dtd">
<svg version="1.1" id="Layer_1" xmlns="http://www.w3.org/2000/svg" xmlns:xlink="http://www.w3.org/1999/xlink" x="0px" y="0px"
	 width="128px" height="128px" viewBox="0 0 128 128" enable-background="new 0 0 128 128" xml:space="preserve">
<g>
	<g>
		<g>
			<g>
				<path fill="#282D33" d="M63.453,128c-0.541,0-1.059-0.218-1.437-0.604L1.241,65.196c-0.565-0.578-0.729-1.438-0.415-2.184
					c0.313-0.745,1.043-1.23,1.852-1.23h121.55c0.809,0,1.538,0.485,1.853,1.23c0.313,0.745,0.149,1.605-0.415,2.184l-60.775,62.199
					C64.513,127.782,63.994,128,63.453,128z M7.45,65.801l56.003,57.316l56.004-57.316H7.45z"/>
			</g>
			<g>
				<path fill="#282D33" d="M63.453,128L63.453,128c-0.802,0-1.528-0.478-1.845-1.214l-26.788-62.2l3.691-1.588l24.941,57.916
					l21.869-50.76l3.69,1.589l-23.714,55.043C64.981,127.522,64.255,128,63.453,128z"/>
			</g>
		</g>
		<g>
			<g>
				<path fill="#282D33" d="M124.229,65.98H2.678c-0.746,0-1.431-0.414-1.778-1.074c-0.347-0.66-0.3-1.459,0.123-2.073L17.747,38.52
					c0.375-0.545,0.995-0.871,1.656-0.871h88.107c0.661,0,1.279,0.326,1.655,0.871l16.72,24.313c0.422,0.615,0.47,1.413,0.122,2.073
					C125.66,65.566,124.975,65.98,124.229,65.98z M6.499,61.962h113.91l-13.955-20.295H20.459L6.499,61.962z"/>
			</g>
			<g>
				<polygon fill="#282D33" points="38.023,65.453 35.308,62.49 62.095,37.932 64.812,37.932 84.801,56.256 82.086,59.218 
					63.453,42.138 				"/>
			</g>
			<g>
				
					<rect x="19.46" y="53.113" transform="matrix(0.573 0.8196 -0.8196 0.573 58.0968 -1.2595)" fill="#282D33" width="21.593" height="4.018"/>
			</g>
			<g>
				<path fill="#282D33" d="M124.229,65.98H90.472c-0.749,0-1.436-0.417-1.782-1.081c-0.346-0.664-0.294-1.465,0.135-2.079
					l16.997-24.313c0.376-0.538,0.99-0.858,1.646-0.858c0.661,0,1.321,0.326,1.697,0.871l16.72,24.313
					c0.422,0.615,0.47,1.413,0.122,2.073C125.66,65.566,124.975,65.98,124.229,65.98z M94.326,61.962h26.082l-12.934-18.808
					L94.326,61.962z"/>
			</g>
		</g>
	</g>
	<g>
		<g>
			
				<rect x="115.779" y="-1.961" transform="matrix(0.7036 0.7106 -0.7106 0.7036 41.6504 -80.8934)" fill="#282D33" width="4.018" height="22.877"/>
		</g>
		<g>
			
				<rect x="106.35" y="7.469" transform="matrix(0.7105 0.7037 -0.7037 0.7105 40.7704 -80.1453)" fill="#282D33" width="22.88" height="4.018"/>
		</g>
	</g>
	<g>
		<g>
			
				<rect x="91.359" y="18.033" transform="matrix(0.7036 0.7106 -0.7106 0.7036 45.5554 -58.8916)" fill="#282D33" width="4.018" height="14.252"/>
		</g>
		<g>
			
				<rect x="86.242" y="23.15" transform="matrix(0.7105 0.7037 -0.7037 0.7105 44.7397 -58.4224)" fill="#282D33" width="14.253" height="4.018"/>
		</g>
	</g>
</g>
</svg>
