<?xml version="1.0" encoding="UTF-8"?>
<!DOCTYPE svg PUBLIC "-//W3C//DTD SVG 1.1//EN" "http://www.w3.org/Graphics/SVG/1.1/DTD/svg11.dtd">
<!-- Creator: CorelDRAW -->
<svg xmlns="http://www.w3.org/2000/svg" xml:space="preserve" width="2048px" height="2048px" style="shape-rendering:geometricPrecision; text-rendering:geometricPrecision; image-rendering:optimizeQuality; fill-rule:evenodd; clip-rule:evenodd"
viewBox="0 0 2048 2048"
 xmlns:xlink="http://www.w3.org/1999/xlink">
 <defs>
  <style type="text/css">
   <![CDATA[
    .fil1 {fill:none}
    .fil0 {fill:#212121;fill-rule:nonzero}
   ]]>
  </style>
 </defs>
 <g id="Layer_x0020_1">
  <metadata id="CorelCorpID_0Corel-Layer"/>
  <path class="fil0" d="M593.925 711.595c5.59134,-16.7067 -3.41811,-34.7847 -20.1248,-40.376 -16.7067,-5.59134 -34.7847,3.41811 -40.376,20.1248 -85.7233,254.44 71.1249,585.035 91.5249,626.266 67.063,386.877 200.687,461.416 201.658,461.964l-0.0377953 0.0661418c1.80945,1.04882 3.67914,1.89921 5.58308,2.56063 197.547,80.4886 183.418,-309.003 183.384,-310.122l-31.8756 0.875198 31.9843 -0.999213c-0.0271654,-0.86693 -0.0897638,-1.72323 -0.183071,-2.57008 -3.94961,-132.367 23.739,-215.634 60.652,-251.305 11.0929,-10.7185 22.5059,-16.0795 33.254,-16.0795 10.748,0 22.1599,5.36103 33.254,16.0807 37.1469,35.8973 64.9607,119.988 60.58,253.827l-0.108662 -0.00354331c-0.0307087,0.946064 -0.0177165,1.8815 0.0318898,2.80984 -0.82441,34.1233 -4.87205,386.644 185.364,306.744l-12.3756 -29.5004 12.391 29.504c2.5252,-1.06063 4.8437,-2.40709 6.93308,-3.9874 21.0603,-14.2961 137.333,-107.655 198.385,-460.065 24.5764,-49.6489 247.044,-518.872 4.6252,-770.802 -45.0437,-76.6737 -187.589,-125.641 -351.644,-141.091 -163.38,-15.3874 -350.905,1.02402 -482.41,55.4481 -16.2921,6.69567 -24.0709,25.3335 -17.3752,41.6256 6.69567,16.2921 25.3335,24.0709 41.6256,17.3752 121.925,-50.4591 297.866,-65.4792 452.159,-50.9481 146.639,13.8106 270.953,52.728 303.163,111.224 1.43976,2.75197 3.30473,5.33741 5.59961,7.66182l0.0637796 -0.0625985c220.402,223.253 3.16418,668.985 -13.9087,703.032 -2.00433,3.32481 -3.43347,7.07245 -4.12677,11.1307l31.5437 5.38583 -31.5 -5.3752c-56.9811,333.753 -154.302,410.843 -169.502,421.048 -99.508,39.0532 -95.9753,-217.445 -95.2595,-246.523 0.0933072,-0.836221 0.154725,-1.68189 0.183071,-2.53701l-0.113386 -0.00354331 0.00236221 -0.0448819 0.00354331 0c5.04331,-153.847 -31.5638,-254.991 -80.0788,-301.872 -23.5134,-22.7209 -50.1792,-34.0831 -77.5052,-34.0831 -27.326,0 -53.9906,11.361 -77.5052,34.0819 -48.2268,46.604 -84.6792,146.842 -80.1556,299.157 -0.0472441,0.897638 -0.0590552,1.80118 -0.0307087,2.71536l0.108662 -0.00354331 0 0.00472441 0.00354331 0c0.174803,5.28544 9.29056,290.116 -95.1875,249.109 -15.1748,-10.1894 -112.189,-87.0556 -169.211,-419.38 -0.427559,-3.67205 -1.50118,-7.33111 -3.27756,-10.8177l-0.0212599 0.0106299c-0.753544,-1.47165 -172.873,-335.794 -90.1666,-581.28z"/>
  <path class="fil0" d="M701.075 281.117l76.1871 217.193 204.64 62.8772 0.0271654 -0.0885827c16.8933,5.19095 26.3811,23.0953 21.1902,39.9886 -3.36851,10.9618 -12.091,18.8043 -22.4162,21.5421l-217.191 76.1871 -62.8784 204.641 0.0885827 0.0271654c-5.19095,16.8933 -23.0953,26.3811 -39.9886,21.1902 -10.9618,-3.36851 -18.8032,-12.091 -21.5421,-22.4162l-76.1882 -217.192 -204.64 -62.8784 -0.0271654 0.0885827c-16.8933,-5.19095 -26.3811,-23.0953 -21.1902,-39.9886 3.36851,-10.9618 12.091,-18.8032 22.4162,-21.5421l217.192 -76.1882 62.8784 -204.64 -0.0885827 -0.0271654c5.19095,-16.8933 23.0953,-26.3811 39.9886,-21.1902 10.9618,3.36851 18.8043,12.091 21.5421,22.4162zm51.4181 242.962l-30.1252 10.5 -50.2264 -143.185 -38.4024 124.978c-2.35512,10.3854 -9.83387,19.3666 -20.6232,23.1508l-10.5921 -30.1961 10.5 30.1252 -143.185 50.2276 124.978 38.4012c10.3854,2.35512 19.3677,9.83387 23.152,20.6232l-30.1961 10.5921 30.1252 -10.5 50.2276 143.185 38.4012 -124.978c2.35512,-10.3854 9.83387,-19.3677 20.6232,-23.152l10.5921 30.1961 -10.5 -30.1252 143.184 -50.2264 -124.977 -38.4012c-10.3854,-2.35512 -19.3677,-9.83387 -23.152,-20.6232l30.1961 -10.5921z"/>
 </g>
 <rect class="fil1" width="2048" height="2048"/>
</svg>
