<svg xmlns="http://www.w3.org/2000/svg" viewBox="0 0 32 32"><defs><style>.cls-1{fill:#231f20;}</style></defs><g id="mouth"><path class="cls-1" d="M30,11.09V11a.5.5,0,0,0,0-.13.78.78,0,0,0,0-.21,1.51,1.51,0,0,0-.09-.18s0-.08-.07-.12c-4.16-5-7.45-7.11-10.06-6.32a5.8,5.8,0,0,0-1.88,1.1A2.87,2.87,0,0,1,16,6a2.87,2.87,0,0,1-1.83-.86A5.8,5.8,0,0,0,12.29,4a4.94,4.94,0,0,0-3.75.56,1,1,0,0,0,.92,1.78A3,3,0,0,1,11.71,6a4,4,0,0,1,1.23.76A4.74,4.74,0,0,0,16,8a4.74,4.74,0,0,0,3.06-1.28A4,4,0,0,1,20.29,6c.95-.3,3.21,0,7.69,5.39a11.88,11.88,0,0,1-3.36,8l-.31.32c-.3.28-.61.55-.93.8A11.83,11.83,0,0,1,16,23,12,12,0,0,1,4,11.35,32.59,32.59,0,0,1,6.69,8.47l.38-.35A1,1,0,0,0,5.73,6.63L5.31,7a37.74,37.74,0,0,0-3.08,3.35s0,.08-.07.12a1.51,1.51,0,0,0-.09.18.78.78,0,0,0,0,.21A.5.5,0,0,0,2,11v.09H2A14,14,0,0,0,16,25a13.82,13.82,0,0,0,8.62-3,13.44,13.44,0,0,0,1.07-.93l.37-.38A13.91,13.91,0,0,0,30,11.1Z"/><path class="cls-1" d="M21,17.22a1,1,0,0,0,1.26,1.56A10,10,0,0,0,26,11a1,1,0,0,0-1-1H7a1,1,0,0,0-1,1A10,10,0,0,0,16,21a9.74,9.74,0,0,0,3.34-.58,1,1,0,0,0-.68-1.88A8,8,0,0,1,9.76,16H22.22A7.82,7.82,0,0,1,21,17.22ZM20,12v2H17V12ZM8.59,14a7.86,7.86,0,0,1-.53-2H10v2ZM12,12h3v2H12Zm10,2V12h1.94a8.11,8.11,0,0,1-.54,2Z"/></g></svg>