<svg xmlns="http://www.w3.org/2000/svg" viewBox="0 0 48 48"><title>Jaw With Teeth</title><g id="Jaw_With_Teeth" data-name="Jaw With Teeth"><path d="M45,7C38.82,4.4,33.21,2,24,2S9.05,4.46,3,7C-.5,8.56,0,11.87,0,15.32a2.69,2.69,0,0,0,1.73,2.5l-.32,1.86a2,2,0,0,0,2,2.32H7.24c1.16,1.28,2.18,1,7,1,1.19,1.33,2.2,1,7.81,1a3,3,0,0,0,2-.79A3,3,0,0,0,26,24c5.62,0,6.63.31,7.81-1,.09-.1-.61,0,4.71,0a3,3,0,0,0,2.24-1h3.85a2,2,0,0,0,2-2.33l-.32-1.85C48.44,17,48,15,48,11.64A5,5,0,0,0,45,7ZM2,11.64C2,9.16,4.18,8.73,7.12,7.46a42.84,42.84,0,0,1,33.76,0C43.79,8.71,46,9.15,46,11.64c0,4,.08,3.91-.25,4.19A3.31,3.31,0,0,0,40.44,15a4.37,4.37,0,0,0-7-.36,5.4,5.4,0,0,0-9.4.28,5.4,5.4,0,0,0-9.4-.28,4.37,4.37,0,0,0-7,.36,3.31,3.31,0,0,0-5.31.86C1.88,15.52,2,15.47,2,11.64ZM3.39,20l.46-2.74a1.36,1.36,0,0,1,2.7-.14c.19,1.12.19.57,0,2.5C6.43,20.15,7.07,20,3.39,20Zm6.09,1a1,1,0,0,1-1-1.12l.35-2.78a2.4,2.4,0,0,1,4.76,0c.14,1.13.17.36-.16,3.59C13.39,21.12,14.13,21,9.48,21Zm6.94,1a1,1,0,0,1-1-1.1l.39-3.82a3.42,3.42,0,0,1,6.8,0C23.2,22.94,24.25,22,16.42,22ZM26,22a1,1,0,0,1-1-1.1l.39-3.82a3.42,3.42,0,0,1,6.8,0l.39,3.82a1,1,0,0,1-1,1.1Zm8.56-1c0-1.65-.82-4.11.64-5.39a2.4,2.4,0,0,1,4,1.5C39.74,21.6,40.28,21,34.56,21Zm6.95-1c0-1-.62-3,.5-3.75a1.36,1.36,0,0,1,2.14,1L44.61,20Z"/><path d="M46.27,32.18c.33-1.95.59-2.62-.13-3.47s-1-.71-7.35-.71c-14,0-13.63-.26-14.79.79C22.83,27.73,23.15,28,9.48,28L9.3,28l-.09,0c-6.15,0-6.57-.22-7.35.71s-.47,1.5-.13,3.47c-2,.76-1.73,2.6-1.73,4.18,0,3.94,3.48,4.79,6.33,6a44.77,44.77,0,0,0,35.34,0c2.95-1.26,6.33-2.12,6.33-6C48,34.85,48.29,33,46.27,32.18Zm-2.1.45c-.45,2-2.5,1.57-2.72.24-.19-1.13.33-1.64-.11-2.87h3.27ZM34.4,30c6,0,5.33-.6,4.77,3.9a2.4,2.4,0,0,1-4.76,0C34.25,32.56,34.86,31.28,34.4,30Zm-2.82,0a1,1,0,0,1,1,1.1l-.39,3.82a3.42,3.42,0,0,1-6.8,0C24.8,29,23.77,30,31.58,30Zm-8.84.33c.4.44.29.46-.13,4.59a3.42,3.42,0,0,1-6.8,0C15.22,29,14.21,30,22,30A1,1,0,0,1,22.74,30.33Zm-14.26.8a1,1,0,0,1,1-1.13H13.6c-.46,1.28.16,2.45,0,3.89a2.4,2.4,0,0,1-4.76,0ZM6.66,30c-.45,1.27.08,1.72-.11,2.87a1.36,1.36,0,0,1-2.68-.06A27.28,27.28,0,0,1,3.39,30ZM46,36.36c0,2.48-2.17,2.91-5.12,4.18a42.84,42.84,0,0,1-33.76,0C4.21,39.29,2,38.85,2,36.36c0-1.76-.08-1.92.25-2.2a3.31,3.31,0,0,0,4.94,1.19,4.37,4.37,0,0,0,7.07,1.4,5.41,5.41,0,0,0,9.74.36,5.41,5.41,0,0,0,9.74-.36,4.36,4.36,0,0,0,7.07-1.4,3.31,3.31,0,0,0,4.94-1.19C46.08,34.44,46,34.61,46,36.36Z"/></g></svg>