<svg width="32" height="32" viewBox="0 0 32 32" fill="none" xmlns="http://www.w3.org/2000/svg">
<path d="M14.5 1C10.5608 1 10.0691 1.01813 8.52238 1.087C6.97813 1.1595 5.92688 1.40237 5.0025 1.76125C4.04912 2.131 3.23954 2.62762 2.43358 3.43358C1.62762 4.23954 1.12979 5.04792 0.76125 6.0025C0.402375 6.92688 0.158292 7.97813 0.087 9.52238C0.0145 11.0691 0 11.5608 0 15.5C0 19.4392 0.018125 19.9309 0.087 21.4776C0.1595 23.0207 0.402375 24.0731 0.76125 24.9975C1.131 25.9497 1.62762 26.7604 2.43358 27.5664C3.23954 28.3712 4.04792 28.8702 5.0025 29.2388C5.92808 29.5964 6.97933 29.8417 8.52238 29.913C10.0691 29.9855 10.5608 30 14.5 30C18.4392 30 18.9309 29.9819 20.4776 29.913C22.0207 29.8405 23.0731 29.5964 23.9975 29.2388C24.9497 28.869 25.7604 28.3712 26.5664 27.5664C27.3712 26.7604 27.8702 25.9533 28.2388 24.9975C28.5964 24.0731 28.8417 23.0207 28.913 21.4776C28.9855 19.9309 29 19.4392 29 15.5C29 11.5608 28.9819 11.0691 28.913 9.52238C28.8405 7.97933 28.5964 6.92567 28.2388 6.0025C27.869 5.04912 27.3712 4.23954 26.5664 3.43358C25.7604 2.62762 24.9533 2.12979 23.9975 1.76125C23.0731 1.40237 22.0207 1.15829 20.4776 1.087C18.9309 1.0145 18.4392 1 14.5 1ZM14.5 3.61C18.3703 3.61 18.8319 3.62933 20.3604 3.69579C21.7742 3.76225 22.5414 3.99667 23.0514 4.19725C23.7304 4.45946 24.2114 4.77363 24.7213 5.27992C25.2276 5.78742 25.5417 6.26954 25.8039 6.94863C26.0021 7.45854 26.2389 8.22583 26.303 9.63958C26.3719 11.1693 26.3876 11.6285 26.3876 15.5C26.3876 19.3715 26.3694 19.8319 26.2982 21.3604C26.2244 22.7742 25.9888 23.5414 25.7894 24.0514C25.5188 24.7304 25.2107 25.2114 24.7032 25.7213C24.1969 26.2276 23.7075 26.5417 23.0357 26.8039C22.5282 27.0021 21.7488 27.2389 20.3351 27.303C18.7956 27.3719 18.3425 27.3876 14.4637 27.3876C10.5838 27.3876 10.1307 27.3694 8.59245 27.2982C7.1775 27.2244 6.39813 26.9888 5.89062 26.7894C5.20308 26.5188 4.73063 26.2107 4.22433 25.7032C3.71563 25.1969 3.39058 24.7075 3.13683 24.0357C2.93746 23.5282 2.70304 22.7488 2.62933 21.3351C2.57496 19.8126 2.55562 19.3425 2.55562 15.4819C2.55562 11.6201 2.57496 11.1488 2.62933 9.60817C2.70304 8.19442 2.93746 7.41625 3.13683 6.90875C3.39058 6.22 3.71563 5.74875 4.22433 5.24004C4.73063 4.73375 5.20308 4.4075 5.89062 4.15496C6.39813 3.95438 7.16058 3.71875 8.57433 3.64625C10.1149 3.59188 10.5681 3.57375 14.4456 3.57375L14.5 3.61ZM14.5 8.05425C10.3856 8.05425 7.05425 11.3892 7.05425 15.5C7.05425 19.6144 10.3892 22.9457 14.5 22.9457C18.6144 22.9457 21.9457 19.6108 21.9457 15.5C21.9457 11.3856 18.6108 8.05425 14.5 8.05425ZM14.5 20.3333C11.8296 20.3333 9.6667 18.1704 9.6667 15.5C9.6667 12.8296 11.8296 10.6667 14.5 10.6667C17.1704 10.6667 19.3333 12.8296 19.3333 15.5C19.3333 18.1704 17.1704 20.3333 14.5 20.3333ZM23.9806 7.76062C23.9806 8.72125 23.2 9.50062 22.2406 9.50062C21.2799 9.50062 20.5006 8.72004 20.5006 7.76062C20.5006 6.80121 21.2812 6.02183 22.2406 6.02183C23.1988 6.02062 23.9806 6.80121 23.9806 7.76062Z" fill="white"/>
</svg>
