<?xml version="1.0" encoding="UTF-8"?>
<svg version="1.1" viewBox="0 0 1932 1160" width="483" height="290" xmlns="http://www.w3.org/2000/svg">
<path transform="translate(971,148)" d="m0 0h16l22 3 20 6 21 10 16 11 5 3 21-10 24-8 20-4 10-1h18l14 2 16 5 15 8 11 9 11 11 9 13 8 14 8 20 5 19 3 18 1 8v29l-3 22-5 21-10 29-13 30-12 25-12 24-10 18-16 28-15 25-12 19-11 17-8 12-9 13-10 13-13 13-13 9-12 6-14 4h-23l-16-5-16-8-14-10-15-14-4-4-7 6-4 5-11 9-11 8-16 8-13 4-5 1h-20l-16-5-12-6-12-9-12-12-13-17-23-35-15-24-16-27-12-21-13-24-15-29-13-28-10-25-9-27-5-23-2-17v-25l3-24 5-20 7-19 9-17 8-12 11-12 10-9 14-8 12-5 13-3 8-1h20l20 3 19 5 21 8 13 6 4-1 9-7 17-10 20-8 23-5zm-8 27-17 4-15 6-17 9 5 5 15 10 18 13 14 11 13 11 8-6 16-13 19-14 17-11 5-3v-2l-16-9-11-5-17-5-6-1zm-165 9-16 3-12 5-10 7-8 7-11 15-12 25-6 21-2 15v36l3 18 6 21 8 22 11 25 12 25 13 26 26 46 14 23 12 19 26 39 9 11 11 11 13 8 13 4h10l11-3 12-6 12-9 10-9 10-10-6-11-14-21-29-44-18-27-29-44-14-21-9-16-9-21-6-21-3-19v-39l5-26 6-18 9-19 5-5 2-1h8l6 3 3 5v7l-10 22-6 20-3 17v30l5 26 7 19 8 16 14 22 29 43 16 25 29 43 14 22 14 20 9 13 11 12 11 10 11 7 12 6 8 2h13l13-4 11-7 11-10 13-17 28-42 12-20 16-27 14-25 17-32 14-29 13-31 9-28 4-18 2-17v-18l-2-18-4-16-6-18-8-16-7-11-10-11-10-7-12-6-11-3-8-1h-13l-20 3-19 6-18 7 2 4 10 13 12 21 8 19 5 18 4 25v31l-3 20-7 25-9 21-11 18-11 17-30 45-17 26-20 30-6 8v2l-5 1h-7l-6-3-3-5v-8l10-16 18-27 29-44 16-24 15-23 9-17 7-19 5-23 1-9v-22l-4-24-5-16-8-18-9-15-13-16-6 1-16 10-17 12-13 10-16 13-11 9-6 3-9-1-9-6-14-12-17-13-18-13-19-12-26-14-18-8-22-7-21-3z" fill="#e6eae9"/>
<path transform="translate(1013,776)" d="m0 0h64l20 2 17 4 13 5 13 9 12 12 8 14 4 9 4 16 1 7v23l-4 20-5 12-7 12-11 12-8 7-15 8-16 5-9 2-23 2h-57l-1-1zm46 11-13 2-6 2v152l9 2 8 1h19l15-3 16-8 12-11 8-11 5-11 4-13 2-12v-20l-3-18-6-15-9-14-8-8-11-7-12-5-16-3z" fill="#e6eae9"/>
<path transform="translate(1268,772)" d="m0 0h19l17 3 11 5 12 7 12 11 8 9 9 15 5 14 3 13 1 8v17l-3 19-7 19-10 15-9 10-10 9-11 6-12 5-14 3-9 1h-11l-18-3-16-6-11-7-12-11-9-12-8-16-5-15-2-13v-24l3-16 5-14 6-11 10-13 7-7 11-8 16-8 9-3zm-2 11-10 3-9 5-10 9-8 13-5 12-4 20-1 10v19l2 18 5 19 4 9 7 12 9 9 10 6 13 3h15l15-4 11-7 8-9 6-10 5-14 3-13 1-8v-35l-3-18-6-18-7-12-10-10-14-7-8-2z" fill="#e6eae9"/>
<path transform="translate(878,772)" d="m0 0h18l16 3 12 5 12 7 12 11 7 8 8 13 6 14 4 17 1 10v12l-3 19-6 18-8 14-9 11-7 7-13 9-13 6-17 4-10 1h-9l-19-3-14-5-12-7-12-11-7-8-9-15-6-16-3-15v-30l4-18 9-19 9-12 10-10 13-9 12-6 16-4zm-3 11-13 4-10 7-7 7-8 14-5 13-3 16-1 10v23l3 21 5 17 7 13 9 10 9 7 10 4 6 1h16l12-3 11-6 8-7 9-14 6-18 3-18v-32l-3-19-5-16-7-13-9-10-8-6-11-4-5-1z" fill="#e6eae9"/>
<path transform="translate(1820,772)" d="m0 0h19l16 3 12 5 12 7 13 12 9 11 8 15 5 15 3 21v9l-3 21-4 13-8 16-9 12-9 9-13 9-13 6-11 3-16 2h-9l-19-3-14-5-12-7-12-11-7-8-9-15-6-16-3-16v-29l4-18 5-11 6-11 8-10 9-9 13-9 15-7 12-3zm-2 11-10 3-11 6-9 9-8 14-5 13-4 23v28l3 19 4 14 8 16 11 12 9 6 9 3 5 1h16l15-4 11-7 8-9 6-10 5-14 3-14 1-10v-30l-3-19-5-16-7-13-9-10-9-6-10-4-5-1z" fill="#e6eae9"/>
<path transform="translate(74,776)" d="m0 0h30l19 3 12 5 10 7v2h2l6 9 4 10 1 4v15l-4 12-8 11-9 7-11 5-11 3 6 9 14 19 39 54 3 4v2h-29l-9-11-10-14-26-36-12-17-5-6h-17v83l-1 1h-24l-1-1v-178l2-1zm6 11-9 2-2 1v74l4 1 21-3 13-5 9-6 7-8 4-11v-13l-3-12-6-8-8-7-11-4-5-1z" fill="#e6eae9"/>
<path transform="translate(1406,776)" d="m0 0h13l5 5 9 10 8 10 14 17 11 14 11 13 11 14 12 14 7 9 11 13 9 12 2 1v-132h12l1 1v182l-5 1-9-9-18-22-14-17-9-11-26-32-11-13-11-14-11-13-8-10-1 137-1 1h-11l-1-1z" fill="#e6eae9"/>
<path transform="translate(454,771)" d="m0 0 4 1 3 4 14 31 16 36 16 35 16 36 13 29 5 11-1 3h-32l-2-1-11-28-12-29v-2h-70l-3 9-13 31-9 19-1 1h-12l-1-4 7-15 11-26 20-46 16-37 15-35 9-20zm-6 46-14 31-14 33-1 5h58l-1-6-17-41-9-22z" fill="#e6eae9"/>
<path transform="translate(224,776)" d="m0 0h113l1 1v9l-2 1h-85v69l72 1v10l-13 1h-59l1 75 8 2 78 1v10l-20 1h-93l-1-1z" fill="#e6eae9"/>
<path transform="translate(1581,776)" d="m0 0h146v12l-6 1h-55v167l-2 1h-23l-1-1v-167h-60v-12z" fill="#e6eae9"/>
<path transform="translate(593,776)" d="m0 0h18l1 1 1 159 3 5 7 2 80 1-1 5-3 7-36 1h-77l-1-1v-179z" fill="#e6eae9"/>
<path transform="translate(933,362)" d="m0 0h8l6 4 3 8 2 10 4 6 5 4 7 4 9 2 11-1 10-4 6-5 4-7 3-15 5-5 3-1h8l6 4 3 5v13l-3 10-6 10-9 10-11 7-11 4-9 2h-16l-12-3-12-6-10-8-6-8-6-12-2-10v-8l3-6 4-3z" fill="#e6eae9"/>
<path transform="translate(973,20)" d="m0 0 2 2 4 10 7 9 10 7 9 4v2l-11 4-8 6-6 7-4 9-1 4h-2l-8-15-8-8-10-5-6-2v-2l14-7 10-9 6-12z" fill="#e6eae9"/>
<path transform="translate(224,776)" d="m0 0h113l1 1v5l-2 2h-58l-20-1-7-1v-2h-23l-2 1v-2h-2z" fill="#e6eae9"/>
<path transform="translate(894,1093)" d="m0 0h14l12 2 6 4 5 8 1 4v9l-4 8-5 5-9 3-19 1-4-2v-40zm3 5-1 6v26l3 2 16-1 6-3 4-5 1-3v-11l-4-7-6-3-6-1z" fill="#e6eae9"/>
<path transform="translate(1162,1093)" d="m0 0 12 1 9 6 4 7 1 4v8l-3 8-9 8-3 1h-15l-8-4-6-8-2-5v-8l5-10 7-6zm-2 5-6 3-4 5-2 5v8l4 8 7 4 8 1 9-3 4-5 2-5v-9l-4-7-6-4-3-1z" fill="#e6eae9"/>
<path transform="translate(1280,1092)" d="m0 0 2 1h10l7 3 5 5 3 4 2 6v8l-3 7-6 7-6 3h-16l-7-4-5-6-3-8 1-10 6-9zm3 6-7 2-5 5-2 7v7l4 8 6 4 9 1 9-3 5-6 1-3v-10l-4-7-5-4-4-1z" fill="#e6eae9"/>
<path transform="translate(840,1093)" d="m0 0 11 1 7 4 5 7 2 6v8l-3 7-6 7-6 3h-16l-7-4-5-6-3-7v-7l4-10 7-6 4-2zm-2 5-7 3-4 5-2 7 1 9 4 6 5 3 9 1 9-3 5-6 1-3v-10l-4-7-5-4-3-1z" fill="#e6eae9"/>
<path transform="translate(977,1093)" d="m0 0 10 1 7 4 5 7 2 6v8l-3 8-8 7-4 2h-16l-7-4-6-7-2-6v-7l3-8 6-7 6-3zm-3 5-7 3-4 5-2 6v7l4 8 6 4 9 1 9-3 5-6 1-3v-10l-4-7-5-4-3-1z" fill="#e6eae9"/>
<path transform="translate(1028,1093)" d="m0 0 4 1 9 11 11 13 6 7v-31l5-1 1 4v38l-4 1-5-5-8-9-8-10-5-7-1 3-1 28-5-1v-40z" fill="#e6eae9"/>
<path transform="translate(566,1092)" d="m0 0 5 3 13 16 8 10 3 4 1-23 1-9h4l1 3-1 40-5-1-11-13-8-10-6-8-1 32h-5v-42z" fill="#e6eae9"/>
<path transform="translate(1351,1093)" d="m0 0h7l9 3 3 3-1 3-5-1-5-2h-10l-6 3-3 3-2 7v7l4 8 5 3 10 1 6-1 1-15 5-1 2 3v10l-2 5-7 4h-16l-7-4-5-6-3-7v-7l3-8 6-7 6-3z" fill="#e6eae9"/>
<path transform="translate(1510,1092)" d="m0 0h3l8 16 11 24v4l-5-1-4-8-7-1h-17l-2 6-3 4h-4l2-6 14-31zm1 8-7 14-2 6 4 1h15l-2-6-6-13z" fill="#e6eae9"/>
<path transform="translate(743,1092)" d="m0 0h2l8 16 11 24v4h-4l-5-9-7-1h-17l-2 6-3 4h-4l2-6 14-31zm0 8-7 14-2 6 4 1h15l-2-6-6-13z" fill="#e6eae9"/>
<path transform="translate(1169,86)" d="m0 0 2 1 3 8 12 9v2l-8 4-5 6-2 7h-2l-6-9-5-5-8-3 4-4 8-5 4-6z" fill="#e6eae9"/>
<path transform="translate(777,86)" d="m0 0h2l4 9 4 4 8 5v2l-8 4-5 6-3 7h-2l-5-9-7-6-5-2 1-3 9-6 5-6z" fill="#e6eae9"/>
<path transform="translate(431,1093)" d="m0 0h7l9 3 2 3v4l-6-2-4-2h-10l-6 3-3 3-2 6v8l4 8 5 3 9 1 9-3 4-1-1 5-7 4-10 1-9-3-7-6-4-9v-7l3-8 6-7 6-3z" fill="#e6eae9"/>
<path transform="translate(685,1093)" d="m0 0 11 1 5 3 1 1v5l-6-2-5-2h-9l-6 3-4 5-1 4v9l3 6 6 4 7 1 8-2 7-2 1 2-5 5-4 2h-15l-9-6-5-8-1-10 4-10 7-6 4-2z" fill="#e6eae9"/>
<path transform="translate(1453,1093)" d="m0 0 11 1 5 3 1 1v5l-6-2-5-2h-9l-6 3-4 5-1 4v9l3 6 6 4 7 1 8-2 7-2 1 2-5 5-4 2h-15l-9-6-4-6-2-10 2-8 4-6 5-4 4-2z" fill="#e6eae9"/>
<path transform="translate(1089,1093)" d="m0 0h33l1 4-1 1-13 1-1 5v31l-5 1-1-1v-36h-12l-3-2z" fill="#e6eae9"/>
<path transform="translate(305,859)" d="m0 0h17v7l-3 1v-2h-67v-4l4-1z" fill="#e6eae9"/>
<path transform="translate(477,1093)" d="m0 0 4 1v37h22l3 2-1 3h-29v-42z" fill="#e6eae9"/>
<path transform="translate(1214,1094)" d="m0 0h5l1 5-1 32h23l2 1-1 4h-28l-1-1z" fill="#e6eae9"/>
<path transform="translate(538,1082)" d="m0 0h3l-1 4-5 3-1 3 1 1v42l-1 1h-5l-1-47 8-6z" fill="#e6eae9"/>
<path transform="translate(1280,1092)" d="m0 0 2 1h10l7 3 5 5 3 4 2 6v8l-3 7-6 7-6 3-4-1 10-5 6-8 1-2-4 1-1 2v-13l-4-7-4-3-4-1h-7l-8 2-1-2-6 4 2-4z" fill="#e6eae9"/>
<path transform="translate(1148,1104)" d="m0 0 1 3-2 6 1 7 1 3 7 6 11 2 11-3 4-8 4-1-2 7-8 7-7 3h-11l-8-4-6-8-2-5v-8l2-5z" fill="#e6eae9"/>
<path transform="translate(1581,776)" d="m0 0h146v1l-147 2z" fill="#e6eae9"/>
<path transform="translate(1401,1093)" d="m0 0 4 2-1 41-5-1v-40z" fill="#e6eae9"/>
<path transform="translate(633,1093)" d="m0 0 4 1 1 3v38l-5 1-1-1v-40z" fill="#e6eae9"/>
<path transform="translate(1351,1093)" d="m0 0h7l9 3 3 3-1 3-5-1-5-2h-10l-6 3-3 3-2 7v7l2 7-3-3-1-3v-10-4h-2l2-5 6-5z" fill="#e6eae9"/>
<path transform="translate(292,949)" d="m0 0h45l-1 5h-29l-10-1z" fill="#e6eae9"/>
<path transform="translate(685,1093)" d="m0 0 11 1 5 3 1 1v5l-6-2-5-2h-9l-6 3-5 5-1-2-3 1 2-5 6-5 4-2z" fill="#e6eae9"/>
<path transform="translate(1365,1114)" d="m0 0 5 1 1 2v10l-2 5-7 4h-6l1-2-11-2-4-2 1-2 9 3 11-1 1-15z" fill="#e6eae9"/>
<path transform="translate(413,1106)" d="m0 0 1 3-1 8 3 8 5 6 6 3 1-1-6-3 1-2 9 3 9-1 6-3h2l-1 5-7 4-10 1-9-3-7-6-4-9v-7z" fill="#e6eae9"/>
<path transform="translate(1158,102)" d="m0 0 2 1v2h2l3 3v4h3v-8h2v6h3l1-5h4l-4 2v5h-3v11h-2l-6-9-5-5-8-3 2-3z" fill="#e6eae9"/>
<path transform="translate(1162,1093)" d="m0 0 12 1v1h-7v2l6 1 3 3-7-2h-9l-6 3-4 6-1 3v8l1 5-2-1-2-6 1-8v-3h-2l2-5 7-6z" fill="#e6eae9"/>
<path transform="translate(1501,1116)" d="m0 0 1 4 19 1 1 2-8 1h-15l-1 6-4 6h-4l2-6 6-13z" fill="#e6eae9"/>
<path transform="translate(1581,778)" d="m0 0 54 1-3 2-27 1-2 1v-2l-4 2h-9l-8 1-1-1z" fill="#e6eae9"/>
<path transform="translate(1169,86)" d="m0 0 2 1 3 8 3 6v2l-7-1h-1l-4-2v2h-2l-1-5 4-6z" fill="#e6eae9"/>
<path transform="translate(1453,1093)" d="m0 0 11 1 5 3 1 1v5l-6-2-5-2h-9l-6 1 3-6z" fill="#e6eae9"/>
<path transform="translate(733,1116)" d="m0 0 1 3-1 3h21v1l-6 1h-17l-1 6-4 6h-4l2-6 6-13z" fill="#e6eae9"/>
<path transform="translate(417,1104)" d="m0 0 1 3-1 3v10l2 5 3 2v3l7 2-2 3-8-5-6-9-1-7 2-8z" fill="#e6eae9"/>
<path transform="translate(1030,1100)" d="m0 0h1l1 36h-4v-28l1-7z" fill="#e6eae9"/>
<path transform="translate(633,1093)" d="m0 0 4 1 1 3v38h-2l-1-39-1 6-1 33h-1v-40z" fill="#e6eae9"/>
<path transform="translate(1507,1098)" d="m0 0 1 2 4-2-2 5-7 16-4-2 1-5z" fill="#e6eae9"/>
<path transform="translate(766,106)" d="m0 0h2l6 7 3 1-1-4 5-1-1 3h2l2-4 3 2-5 6-3 7h-2l-5-9-7-6z" fill="#e6eae9"/>
<path transform="translate(1175,97)" d="m0 0 10 6 1 3-8 4-5 6-2 2v-6h3v-5l3-2-2-2h2l-2-3z" fill="#e6eae9"/>
<path transform="translate(567,1101)" d="m0 0h2l1 35h-4v-18l1-11z" fill="#e6eae9"/>
<path transform="translate(896,1097)" d="m0 0h16l4 2-19-1v32l2 1h16l-4 2h-15l-1-1v-34z" fill="#e6eae9"/>
<path transform="translate(700,1127)" d="m0 0 3 1-3 5-6 3h-6l2-2-11-2-3-3 11 2 8-2z" fill="#e6eae9"/>
<path transform="translate(787,100)" d="m0 0 5 2 3 2v2l-7 3h-4l-2 4-3-1v-2-3l4-1-1-3z" fill="#e6eae9"/>
<path transform="translate(1305,1120)" d="m0 0h2l-2 5-6 7-9 4h-6v-2l9-2v-2l6-4 2-3h2v-2z" fill="#e6eae9"/>
<path transform="translate(1184,1119)" d="m0 0h2l-2 7-8 7-7 3-10-1v-2l11-1 8-4 4-8z" fill="#e6eae9"/>
<path transform="translate(1351,1093)" d="m0 0h7l9 3 3 3-1 3h-3l-3-3-3-1-13-1z" fill="#e6eae9"/>
<path transform="translate(1104,1098)" d="m0 0h1l1 38h-3v-37z" fill="#e6eae9"/>
<path transform="translate(415,865)" d="m0 0 1 2-9 21-3 1 1-7 7-16z" fill="#e6eae9"/>
<path transform="translate(597,1093)" d="m0 0h4l1 3-1 5h-1v-7h-2v35l-4-2 1-2 1-23z" fill="#e6eae9v"/>
<path transform="translate(1059,1094)" d="m0 0h3v34l-2 2z" fill="#e6eae9"/>
<path transform="translate(432,1094)" d="m0 0h11l5 3 1 6-6-2-4-2v-2l-8-1z" fill="#e6eae9"/>
<path transform="translate(1168,104)" d="m0 0h2v6h3l1-5h4l-4 2v5h-3v11h-2l-1-2v-7h-3v-2h3z" fill="#e6eae9"/>
<path transform="translate(225,777)" d="m0 0h14l13 1 1 3-25-1-2 1v-2l-2-1z" fill="#e6eae9"/>
<path transform="translate(401,891)" d="m0 0 1 3-3 8 1 2-3 7-4 4-3 7-2 2 1-5z" fill="#e6eae9"/>
<path transform="translate(737,1101)" d="m0 0 1 4h2l-1 5-4 9-4-2 1-5z" fill="#e6eae9"/>
<path transform="translate(730,1117)" d="m0 0 1 4-2 4 2 1-2 6-3 4h-4l2-6z" fill="#e6eae9"/>
<path transform="translate(1106,1097)" d="m0 0h14v1l-11 1-1 5v31l-2 1z" fill="#e6eae9"/>
<path transform="translate(431,1093)" d="m0 0h7v1l-6 1 7 2v1l-13 2-6 4 2-4 4-6z" fill="#e6eae9"/>
<path transform="translate(761,103)" d="m0 0h8l4 6 4 2v3l-4-1-5-5v-2l-7 1z" fill="#e6eae9"/>
<path transform="translate(666,1106)" d="m0 0 1 3v12l4 6 5 5 7 3-4 1-9-6-5-8-1-10z" fill="#e6eae9"/>
<path transform="translate(1510,1092)" d="m0 0h3l4 7v3l-4 1-2-4-3 1 1-6z" fill="#e6eae9"/>
<path transform="translate(1293,1081)" d="m0 0 2 1-1 4-10 6-3-1 4-5z" fill="#e6eae9"/>
<path transform="translate(531,1101)" d="m0 0h1l1 34-4-1 1-10z" fill="#e6eae9"/>
<path transform="translate(1445,1095)" d="m0 0 2 1-2 4-5 7-2-2-3 1 2-5 6-5z" fill="#e6eae9"/>
<path transform="translate(677,1095)" d="m0 0 2 1-2 4-5 7-2-2-3 1 2-5 6-5z" fill="#e6eae9"/>
<path transform="translate(395,911)" d="m0 0 1 2-10 24h-2l2-8 5-10 3-7z" fill="#e6eae9"/>
<path transform="translate(392,939)" d="m0 0 1 4-2 7-6 6-1-3 7-13z" fill="#e6eae9"/>
<path transform="translate(1346,1094)" d="m0 0 4 1-2 1 12 1 6 3-2 1-5-2h-10l-7 3 2-5z" fill="#e6eae9"/>
<path transform="translate(1178,105)" d="m0 0 6 1-3 2-7 6-3 4v-6h3v-5z" fill="#e6eae9"/>
<path transform="translate(1507,1121)" d="m0 0h14l1 2-8 1h-10l-2-2z" fill="#e6eae9"/>
<path transform="translate(1501,1116)" d="m0 0 1 4 5 1-3 3h-5l-1 2h-2l3-9z" fill="#e6eae9"/>
<path transform="translate(1175,1130)" d="m0 0m-2 1h2l-1 3-5 2-10-1v-2l11-1z" fill="#e6eae9"/>
<path transform="translate(1031,1101)" d="m0 0h2l1 3-1 4-1 27h-1z" fill="#e6eae9"/>
<path transform="translate(986,1131)" d="m0 0m-3 1h3l-1 3-3 1h-9l-1-3z" fill="#e6eae9"/>
<path transform="translate(397,929)" d="m0 0 1 3-4 12-2 2v-10l2-4h2z" fill="#e6eae9"/>
<path transform="translate(1215,1094)" d="m0 0h3v20h-1l-1-10h-1z" fill="#e6eae9"/>
<path transform="translate(1153,106)" d="m0 0h6l4 5 2 1v2h3v6l-4-5-6-6-5-2z" fill="#e6eae9"/>
<path transform="translate(447,1127)" d="m0 0h2l-1 5-4 3-3-1v-3l4-3z" fill="#e6eae9"/>
<path transform="translate(928,1120)" d="m0 0h2l-2 6-8 7v-3l5-6z" fill="#e6eae9"/>
<path transform="translate(1504,1109)" d="m0 0h1l-1 8-2 2-1-2h-2l1-5 1-2z" fill="#e6eae9"/>
<path transform="translate(538,1082)" d="m0 0h3l-1 4-5 3-2 2v-4l-2-1z" fill="#e6eae9"/>
<path transform="translate(1143,1119)" d="m0 0 3 4 7 8 5 4-5-1-6-5-4-7z" fill="#e6eae9"/>
<path transform="translate(1434,1121)" d="m0 0 4 5 5 5 8 4-4 1-9-6-4-6z" fill="#e6eae9"/>
<path transform="translate(1169,86)" d="m0 0 2 1 1 7-2-1v-4l-5 8h-2l5-10z" fill="#e6eae9"/>
<path transform="translate(1280,1092)" d="m0 0 1 3h-3v5l-3 1-1-2-6 4 2-4z" fill="#e6eae9"/>
<path transform="translate(679,1132)" d="m0 0 12 1-3 3-8-1z" fill="#e6eae9"/>
<path transform="translate(1172,97)" d="m0 0h3l2 6-7-1 1-4z" fill="#e6eae9"/>
<path transform="translate(1275,1097)" d="m0 0m-1 1 1 4-4 3h-2l-3 1 1-3z" fill="#e6eae9"/>
<path transform="translate(1170,102)" d="m0 0 5 1-2 7h-3z" fill="#e6eae9"/>
<path transform="translate(1293,1131)" d="m0 0 2 1v2l-5 2h-6v-2z" fill="#e6eae9"/>
<path transform="translate(1495,1129)" d="m0 0h1v5l-2 2h-4l2-6z" fill="#e6eae9"/>
<path transform="translate(1348,1133)" d="m0 0h10l-2 3h-7z" fill="#e6eae9"/>
<path transform="translate(849,1131)" d="m0 0 2 1v2l-5 2h-6v-2z" fill="#e6eae9"/>
<path transform="translate(1468,1127)" d="m0 0 3 1-3 5-3 2-3-1 3-3z" fill="#e6eae9"/>
<path transform="translate(788,102)" d="m0 0 7 2v2l-7-1-1 3h-2v-2h2z" fill="#e6eae9"/>
</svg>
